<svg viewBox="0 0 296 353" fill="none" xmlns="http://www.w3.org/2000/svg" role="img"><g clip-path="url(#a)"><path d="M221.712 97.82c-18.129 0-32.825-14.732-32.825-32.907 0-18.174 14.696-32.908 32.825-32.908 18.129 0 32.825 14.734 32.825 32.908 0 18.175-14.696 32.908-32.825 32.908ZM33.4 108.79C15.273 108.79.577 94.057.577 75.882c0-18.174 14.696-32.907 32.825-32.907 18.128 0 32.825 14.733 32.825 32.907 0 18.175-14.697 32.908-32.825 32.908Z" fill="#212121"/><path d="M32.825 41.82c6.305 0 12.476 1.82 17.777 5.244a32.882 32.882 0 0 1 12.11 14.06 32.776 32.776 0 0 0-20.305-8.297 32.762 32.762 0 0 0-20.985 6.372 32.906 32.906 0 0 0-12.3 18.199A32.98 32.98 0 0 0 11 99.3 32.917 32.917 0 0 1 .94 82.54a32.98 32.98 0 0 1 1.207-19.523 32.89 32.89 0 0 1 12.048-15.386 32.763 32.763 0 0 1 18.63-5.811ZM222.288 30.85a32.763 32.763 0 0 0-17.777 5.245 32.881 32.881 0 0 0-12.11 14.06 32.774 32.774 0 0 1 20.304-8.298 32.763 32.763 0 0 1 20.986 6.373 32.902 32.902 0 0 1 12.299 18.199 32.974 32.974 0 0 1-1.877 21.901 32.914 32.914 0 0 0 10.06-16.76 32.983 32.983 0 0 0-1.207-19.522 32.888 32.888 0 0 0-12.048-15.386 32.762 32.762 0 0 0-18.63-5.811Z" fill="#FDFFB1"/><path d="M126.693 228.874a85.091 85.091 0 0 0 14.249 47.215 84.78 84.78 0 0 0 38.019 31.313 84.529 84.529 0 0 0 48.966 4.85 84.665 84.665 0 0 0 43.397-23.249 85.006 85.006 0 0 0 23.19-43.506 85.134 85.134 0 0 0-4.838-49.089 84.895 84.895 0 0 0-31.234-38.116 84.573 84.573 0 0 0-47.096-14.285 84.174 84.174 0 0 0-32.44 6.383 84.367 84.367 0 0 0-27.503 18.39 84.605 84.605 0 0 0-18.343 27.572 84.763 84.763 0 0 0-6.367 32.522Z" fill="#212121"/><path d="M126.693 228.874a84.754 84.754 0 0 0 7.607 35.211 100.06 100.06 0 0 0 41.858-9.798 100.307 100.307 0 0 0 33.919-26.469 100.623 100.623 0 0 0 19.748-38.275 100.784 100.784 0 0 0 1.948-43.048 84.51 84.51 0 0 0-38.061-.613 84.62 84.62 0 0 0-34.486 16.153 84.905 84.905 0 0 0-23.952 29.66 85.113 85.113 0 0 0-8.581 37.179Z" fill="#FDFFB1"/><path d="M133.027 251.39c-55.34 0-100.202-44.975-100.202-100.455S77.687 50.479 133.027 50.479c55.34 0 100.203 44.976 100.203 100.456 0 55.48-44.863 100.455-100.203 100.455Z" fill="#212121"/><path d="M108.677 154.371a32.814 32.814 0 0 0-21.525-12.897 32.762 32.762 0 0 0-24.327 6.102 32.975 32.975 0 0 1-1.852-36.541 32.857 32.857 0 0 1 14.116-12.854 32.752 32.752 0 0 1 18.862-2.819 32.794 32.794 0 0 1 17.242 8.169 32.92 32.92 0 0 1 9.802 16.399 32.985 32.985 0 0 1-.945 19.095 32.897 32.897 0 0 1-11.373 15.346ZM185.268 160.722a32.805 32.805 0 0 0-21.525-12.897 32.756 32.756 0 0 0-24.326 6.102 32.966 32.966 0 0 1-6.459-17.989 32.986 32.986 0 0 1 4.606-18.552 32.857 32.857 0 0 1 14.117-12.855 32.744 32.744 0 0 1 18.861-2.818 32.784 32.784 0 0 1 17.242 8.169 32.924 32.924 0 0 1 9.803 16.399 32.986 32.986 0 0 1-.945 19.095 32.904 32.904 0 0 1-11.374 15.346Z" fill="#fff"/><path d="M163.549 139.966c-6.679 0-12.094-5.428-12.094-12.124 0-6.696 5.415-12.124 12.094-12.124 6.679 0 12.093 5.428 12.093 12.124 0 6.696-5.414 12.124-12.093 12.124ZM85.23 130.728c-6.68 0-12.094-5.428-12.094-12.124 0-6.695 5.415-12.124 12.094-12.124 6.678 0 12.093 5.429 12.093 12.124 0 6.696-5.414 12.124-12.093 12.124Z" fill="#212121"/><path d="M125.541 160.75c-3.499 0-6.335-2.844-6.335-6.351s2.836-6.351 6.335-6.351c3.498 0 6.334 2.844 6.334 6.351s-2.836 6.351-6.334 6.351Z" fill="#FF6584"/><path d="M220.56 334.162v-27.926h9.214v27.926a13.828 13.828 0 0 1 6.678 5.065 13.879 13.879 0 0 1 2.536 8h-27.642a13.887 13.887 0 0 1 2.537-8 13.83 13.83 0 0 1 6.677-5.065ZM186.584 334.162v-27.926h9.214v27.926a13.83 13.83 0 0 1 6.677 5.065 13.887 13.887 0 0 1 2.537 8H177.37c0-2.866.886-5.661 2.536-8a13.828 13.828 0 0 1 6.678-5.065ZM173.994 60.114c4.175-6.74 6.979-14.655 6.11-22.54-.869-7.884-6.021-15.578-13.606-17.838-7.585-2.26-16.981 2.422-18.41 10.224a64.034 64.034 0 0 0-33.907-28.31c-6.629-2.342-15.439-2.873-19.272 3.033-1.897 2.923-2.1 6.898-4.641 9.28-3.984 3.732-10.373 1.103-15.817 1.422-7.655.449-13.818 7.612-14.783 15.239-.964 7.627 2.405 15.292 7.38 21.144C72.02 57.62 78.49 61.961 84.872 66.225" fill="#212121"/><path d="M114.526 177.651c-.413-.436-.839-.86-1.283-1.264a25.027 25.027 0 0 0-.984-.842c-.223-.18-.293-.224-.023-.022a25.074 25.074 0 0 0-3.085-1.981 24.934 24.934 0 0 0-1.511-.748l-.363-.161c.543.242.117.05-.023-.006a26.575 26.575 0 0 0-4.474-1.351 34.959 34.959 0 0 0-1.671-.295c-.377-.061.474.052.094.013-.165-.017-.331-.039-.496-.057a27.68 27.68 0 0 0-6.383.07c.6-.071-.088.016-.299.051a26.094 26.094 0 0 0-5.27 1.438c-.153.06-.306.122-.46.184.078-.031.505-.225.072-.027-.542.246-1.079.5-1.604.78a25.306 25.306 0 0 0-3.092 1.976c-.3.22.336-.279.053-.039-.127.108-.259.21-.386.317a20.98 20.98 0 0 0-.604.525 26.38 26.38 0 0 0-2.897 3.094c.2-.253-.083.111-.129.171-.238.32-.47.645-.694.975a30.225 30.225 0 0 0-1.98 3.369 32.737 32.737 0 0 0-.79 1.676c-.054.124-.243.583-.038.083l-.165.406c-.136.34-.267.682-.392 1.026a48.432 48.432 0 0 0-2.08 7.762 65.276 65.276 0 0 0-.48 2.922c.002-.008-.098.735-.046.334a95.013 95.013 0 0 0-.466 4.566c-.22 2.77-.337 5.548-.42 8.325-.214 7.046-.396 14.094-.593 21.141l-1.208 43.163-1.207 43.164-.15 5.358c0 .689-.273 1.35-.76 1.837a2.59 2.59 0 0 1-4.423-1.837l1.24-44.354 1.233-44.057.62-22.177c.167-5.938.406-11.87 1.317-17.748 1.68-10.827 6.557-22.082 16.984-26.998 9.739-4.591 21.792-3.527 30.324 3.15a23.826 23.826 0 0 1 2.656 2.414 2.603 2.603 0 0 1 0 3.674 2.584 2.584 0 0 1-3.664 0Z" fill="#FDFFB1"/><path d="M95.02 259.473a2.88 2.88 0 0 1 2.035.846c.54.541.843 1.275.844 2.04l-5.758 87.717a2.907 2.907 0 0 1-.834 2.062 2.902 2.902 0 0 1-2.046.862H42.039a2.876 2.876 0 0 1-2.035-.847 2.892 2.892 0 0 1-.844-2.04l-5.76-87.791c.009-.76.317-1.485.856-2.018a2.87 2.87 0 0 1 2.024-.831h58.74Z" fill="#E6E6E6"/><path d="M90.46 263.803a2.878 2.878 0 0 1 2.874 3.079l-5.295 79.094a2.895 2.895 0 0 1-2.873 2.694H46.134a2.895 2.895 0 0 1-2.873-2.694l-5.295-79.094a2.891 2.891 0 0 1 1.727-2.841 2.878 2.878 0 0 1 1.146-.238H90.46Z" fill="#FDFFB1"/><path d="M73.136 277.37a1.153 1.153 0 0 1 1.152 1.155v6.35a1.157 1.157 0 0 1-1.152 1.155h-9.79a1.157 1.157 0 0 1-1.152-1.155v-6.35a1.157 1.157 0 0 1 1.152-1.155h9.79ZM62.195 294.112a1.152 1.152 0 0 1 1.151 1.155v6.351a1.151 1.151 0 0 1-1.152 1.154h-9.79a1.151 1.151 0 0 1-1.151-1.154v-6.351a1.157 1.157 0 0 1 1.152-1.155h9.79ZM72.56 307.968a1.152 1.152 0 0 1 1.152 1.155v6.351a1.151 1.151 0 0 1-1.152 1.154h-9.79a1.152 1.152 0 0 1-1.151-1.154v-6.351a1.157 1.157 0 0 1 1.151-1.155h9.79Z" fill="#E6E6E6"/><path d="M258.551 274.575c-2.996.997-5.107 3.552-6.863 6.058-1.81 2.582-3.469 5.387-5.942 7.404a9.71 9.71 0 0 1-7.647 2.304c-2.712-.409-5.011-2.31-5.424-5.114-.543-3.692 2.035-7.109 4.296-9.736l.61 1.479c-3.602.389-6.734 2.448-10.033 3.773-3.161 1.27-6.9 1.963-10.057.308-2.423-1.271-3.934-3.812-4.446-6.446a13.296 13.296 0 0 1 1.246-8.44c1.681-3.445 4.438-6.229 7.111-8.911l.841 1.448c-3.975.598-8.407 1.156-11.856-1.405a7.042 7.042 0 0 1-2.772-4.056 7.86 7.86 0 0 1 .845-5.309c1.814-3.54 5.237-6.037 8.306-8.411a120.974 120.974 0 0 1 23.125-14.093c1.002-.467 1.881 1.025.872 1.495a121.624 121.624 0 0 0-20.023 11.767c-3.024 2.192-6.22 4.452-8.74 7.233-2.139 2.36-4.088 5.971-1.751 8.889 2.748 3.433 7.721 2.794 11.534 2.22a.874.874 0 0 1 .841 1.447c-3.985 3.997-8.718 8.795-8.025 14.946.263 2.332 1.367 4.714 3.437 5.947 2.814 1.677 6.333.814 9.167-.345 3.44-1.407 6.61-3.382 10.378-3.789.812-.088 1.048.971.611 1.478-1.828 2.124-4.021 4.887-3.859 7.865.136 2.491 2.303 3.982 4.627 4.123 5.911.358 8.896-5.812 11.893-9.858 1.896-2.56 4.147-4.913 7.239-5.941 1.058-.352 1.511 1.32.459 1.67Z" fill="#FDFFB1"/></g><defs><clipPath id="a"><path fill="#fff" transform="matrix(-1 0 0 1 296 0)" d="M0 0h296v353H0z"/></clipPath></defs></svg>
